<svg width="24" height="24" viewBox="0 0 24 24" fill="none" xmlns="http://www.w3.org/2000/svg">
<g clip-path="url(#clip0_12737_1631)">
<path d="M6.586 8L8 6.586L3.707 2.293L6 0H1C0.734784 0 0.48043 0.105357 0.292893 0.292893C0.105357 0.48043 0 0.734784 0 1V6L2.293 3.707L6.586 8Z" fill="#060714"/>
<path d="M18 24H23C23.2652 24 23.5196 23.8946 23.7071 23.7071C23.8946 23.5196 24 23.2652 24 23V18L21.707 20.293L17.414 16L16 17.414L20.293 21.707L18 24Z" fill="#060714"/>
<path d="M23 0H18L20.293 2.293L16 6.586L17.414 8L21.707 3.707L24 6V1C24 0.734784 23.8946 0.48043 23.7071 0.292893C23.5196 0.105357 23.2652 0 23 0Z" fill="#060714"/>
<path d="M1 24H6L3.707 21.707L8 17.414L6.586 16L2.293 20.293L0 18V23C0 23.2652 0.105357 23.5196 0.292893 23.7071C0.48043 23.8946 0.734784 24 1 24Z" fill="#060714"/>
</g>
<defs>
<clipPath id="clip0_12737_1631">
<rect width="24" height="24" fill="white"/>
</clipPath>
</defs>
</svg>
