<svg width="1400" height="608" viewBox="0 0 1400 608" fill="none" xmlns="http://www.w3.org/2000/svg">
<g filter="url(#filter0_d_12712_1226)">
<path d="M4.5 42.5H1376C1386.77 42.5 1395.5 51.2304 1395.5 62V580C1395.5 590.77 1386.77 599.5 1376 599.5H24C13.2305 599.5 4.5 590.77 4.5 580V42.5Z" fill="#060714"/>
<path d="M4.5 42.5H1376C1386.77 42.5 1395.5 51.2304 1395.5 62V580C1395.5 590.77 1386.77 599.5 1376 599.5H24C13.2305 599.5 4.5 590.77 4.5 580V42.5Z" fill="url(#paint0_linear_12712_1226)" fill-opacity="0.1"/>
<path d="M4.5 42.5H1376C1386.77 42.5 1395.5 51.2304 1395.5 62V580C1395.5 590.77 1386.77 599.5 1376 599.5H24C13.2305 599.5 4.5 590.77 4.5 580V42.5Z" stroke="url(#paint1_linear_12712_1226)"/>
<path d="M4 20C4 8.9543 12.9543 0 24 0H325.429C330.902 0 336.136 2.2433 339.911 6.2069L374 42H4V20Z" fill="#1B1C28"/>
<circle cx="37.5" cy="25.5" r="4.5" fill="#7780A1"/>
<circle cx="54.5" cy="25.5" r="4.5" fill="#7780A1"/>
<circle cx="71.5" cy="25.5" r="4.5" fill="#7780A1"/>
</g>
<defs>
<filter id="filter0_d_12712_1226" x="0" y="0" width="1400" height="608" filterUnits="userSpaceOnUse" color-interpolation-filters="sRGB">
<feFlood flood-opacity="0" result="BackgroundImageFix"/>
<feColorMatrix in="SourceAlpha" type="matrix" values="0 0 0 0 0 0 0 0 0 0 0 0 0 0 0 0 0 0 127 0" result="hardAlpha"/>
<feOffset dy="4"/>
<feGaussianBlur stdDeviation="2"/>
<feComposite in2="hardAlpha" operator="out"/>
<feColorMatrix type="matrix" values="0 0 0 0 0 0 0 0 0 0 0 0 0 0 0 0 0 0 0.25 0"/>
<feBlend mode="normal" in2="BackgroundImageFix" result="effect1_dropShadow_12712_1226"/>
<feBlend mode="normal" in="SourceGraphic" in2="effect1_dropShadow_12712_1226" result="shape"/>
</filter>
<linearGradient id="paint0_linear_12712_1226" x1="1396" y1="42" x2="1362.12" y2="637.659" gradientUnits="userSpaceOnUse">
<stop stop-color="white"/>
<stop offset="1" stop-color="white" stop-opacity="0"/>
</linearGradient>
<linearGradient id="paint1_linear_12712_1226" x1="700" y1="42" x2="700" y2="600" gradientUnits="userSpaceOnUse">
<stop stop-color="#1E1F2B" stop-opacity="0"/>
<stop offset="0.598958" stop-color="#1E1F2B"/>
<stop offset="1" stop-color="#1E1F2B"/>
</linearGradient>
</defs>
</svg>
